# Blender 3.6.2
# www.blender.org
mtllib character.mtl
o Sphere
v 0.270598 3.826437 -0.270598
v 0.500000 3.609664 -0.500000
v 0.653281 3.285241 -0.653281
v 0.707107 2.828624 -0.707107
v 0.557766 2.365139 -0.557766
v 0.275463 2.100944 -0.275463
v 0.270598 0.869270 -0.270598
v 0.382683 3.826437 0.000000
v 0.707107 3.609664 0.000000
v 0.923879 3.285241 0.000000
v 1.000000 2.828624 0.000000
v 0.788800 2.365139 -0.000000
v 0.389563 2.100944 -0.000000
v 0.382683 0.869270 0.000000
v 0.270598 3.826437 0.270598
v 0.500000 3.609664 0.500000
v 0.653281 3.285241 0.653281
v 0.707107 2.828624 0.707107
v 0.557766 2.365139 0.557766
v 0.275463 2.100944 0.275463
v 0.270598 0.869270 0.270598
v 0.000000 3.826437 0.382683
v 0.000000 3.609664 0.707107
v 0.000000 3.285241 0.923879
v 0.000000 2.828624 1.000000
v 0.000000 2.365139 0.788800
v -0.000000 2.100944 0.389563
v 0.000000 0.869270 0.382683
v -0.270598 3.826437 0.270598
v -0.500000 3.609664 0.500000
v -0.653281 3.285241 0.653281
v -0.707107 2.828624 0.707107
v -0.557766 2.365139 0.557766
v -0.275463 2.100944 0.275463
v -0.270598 0.869270 0.270598
v -0.382683 3.826437 0.000000
v -0.707107 3.609664 0.000000
v -0.923879 3.285241 0.000000
v -1.000000 2.828624 0.000000
v -0.788800 2.365139 0.000000
v -0.389563 2.100944 -0.000000
v -0.382683 0.869270 0.000000
v -0.270598 3.826437 -0.270598
v -0.500000 3.609664 -0.500000
v -0.653281 3.285241 -0.653281
v -0.707107 2.828624 -0.707107
v -0.557766 2.365139 -0.557766
v -0.275463 2.100944 -0.275463
v -0.270598 0.869270 -0.270598
v 0.000000 0.836251 0.000000
v 0.000000 3.902558 0.000000
v 0.000000 3.826437 -0.382683
v 0.000000 3.609664 -0.707107
v 0.000000 3.285241 -0.923879
v 0.000000 2.828624 -1.000000
v 0.000000 2.365139 -0.788800
v -0.000000 2.100944 -0.389563
v 0.000000 0.869270 -0.382683
v -0.089794 0.094949 0.274312
v -0.089794 0.894774 0.274312
v -0.089794 0.094949 0.094724
v -0.089794 0.894774 0.094724
v 0.089794 0.094949 0.274312
v 0.089794 0.894774 0.274312
v 0.089794 0.094949 0.094724
v 0.089794 0.894774 0.094724
v -0.092536 0.093570 -0.123044
v -0.092536 1.037277 -0.123044
v -0.092536 0.093570 -0.308654
v -0.092536 1.037277 -0.308654
v 0.093074 0.093570 -0.123044
v 0.093074 1.037277 -0.123044
v 0.093074 0.093570 -0.308654
v 0.093074 1.037277 -0.308654
v 0.370978 2.212123 -0.370978
v 0.524643 2.212123 -0.000000
v 0.923879 2.476318 0.000000
v 0.653281 2.476318 -0.653281
v 0.370978 2.212123 0.370978
v 0.653281 2.476318 0.653281
v -0.000000 2.212123 0.524643
v 0.000000 2.476318 0.923879
v -0.370978 2.212123 0.370978
v -0.653281 2.476318 0.653281
v -0.923879 2.476318 0.000000
v -0.524643 2.212123 -0.000000
v -0.370978 2.212123 -0.370978
v -0.653281 2.476318 -0.653281
v 0.000000 2.212123 -0.524643
v 0.000000 2.476318 -0.923879
v -0.077709 2.049717 1.203269
v -0.075469 2.003217 -1.206737
v -0.077709 1.904234 1.206788
v -0.075469 1.861929 -1.203320
v 0.077709 2.049717 1.203269
v 0.075469 2.003217 -1.206737
v 0.077709 1.904234 1.206788
v 0.075469 1.861929 -1.203320
v -0.106284 2.032608 -1.179474
v -0.106284 1.833629 -1.174661
v 0.106284 1.833629 -1.174661
v 0.106284 2.032608 -1.179474
v -0.106284 1.876103 1.175271
v 0.106284 1.876103 1.175271
v 0.106284 2.075082 1.170458
v -0.106284 2.075082 1.170458
vn 0.3782 0.1522 -0.9131
vn 0.2243 0.8103 -0.5414
vn 0.3827 -0.0052 -0.9239
vn 0.3753 -0.1958 -0.9060
vn 0.3256 0.5253 -0.7862
vn 0.0805 0.9776 -0.1945
vn 0.0356 -0.9957 -0.0859
vn 0.2033 -0.8472 -0.4908
vn 0.9239 -0.0052 -0.3827
vn 0.9060 -0.1958 -0.3753
vn 0.7862 0.5253 -0.3256
vn 0.1945 0.9776 -0.0805
vn 0.0859 -0.9957 -0.0356
vn 0.4908 -0.8472 -0.2033
vn 0.9131 0.1522 -0.3782
vn 0.5414 0.8103 -0.2243
vn 0.1945 0.9776 0.0805
vn 0.0859 -0.9957 0.0356
vn 0.4908 -0.8472 0.2033
vn 0.9131 0.1522 0.3782
vn 0.5414 0.8103 0.2243
vn 0.9239 -0.0052 0.3827
vn 0.9060 -0.1958 0.3753
vn 0.7862 0.5253 0.3256
vn 0.2033 -0.8472 0.4908
vn 0.3782 0.1522 0.9131
vn 0.2243 0.8103 0.5414
vn 0.3827 -0.0052 0.9239
vn 0.3753 -0.1958 0.9060
vn 0.3256 0.5253 0.7862
vn 0.0805 0.9776 0.1945
vn 0.0356 -0.9957 0.0859
vn -0.3827 -0.0052 0.9239
vn -0.3753 -0.1958 0.9060
vn -0.3256 0.5253 0.7862
vn -0.0805 0.9776 0.1945
vn -0.0356 -0.9957 0.0859
vn -0.2033 -0.8472 0.4908
vn -0.3782 0.1522 0.9131
vn -0.2243 0.8103 0.5414
vn -0.9060 -0.1958 0.3753
vn -0.7862 0.5253 0.3256
vn -0.1945 0.9776 0.0805
vn -0.0859 -0.9957 0.0356
vn -0.4908 -0.8472 0.2033
vn -0.9131 0.1522 0.3782
vn -0.5414 0.8103 0.2243
vn -0.9239 -0.0052 0.3827
vn -0.0859 -0.9957 -0.0356
vn -0.4908 -0.8472 -0.2033
vn -0.9131 0.1522 -0.3782
vn -0.5414 0.8103 -0.2243
vn -0.9239 -0.0052 -0.3827
vn -0.9060 -0.1958 -0.3753
vn -0.7862 0.5253 -0.3256
vn -0.1945 0.9776 -0.0805
vn -0.3782 0.1522 -0.9131
vn -0.2243 0.8103 -0.5414
vn -0.3827 -0.0052 -0.9239
vn -0.3753 -0.1958 -0.9060
vn -0.3256 0.5253 -0.7862
vn -0.0805 0.9776 -0.1945
vn -0.0356 -0.9957 -0.0859
vn -0.2033 -0.8472 -0.4908
vn -1.0000 -0.0000 -0.0000
vn -0.0000 -0.0000 -1.0000
vn 1.0000 -0.0000 -0.0000
vn -0.0000 -0.0000 1.0000
vn -0.0000 -1.0000 -0.0000
vn -0.0000 1.0000 -0.0000
vn 0.6146 -0.7467 -0.2546
vn 0.6146 -0.7467 0.2546
vn 0.2546 -0.7467 0.6146
vn -0.2546 -0.7467 0.6146
vn -0.6146 -0.7467 0.2546
vn -0.6146 -0.7467 -0.2546
vn -0.2546 -0.7467 -0.6146
vn 0.2546 -0.7467 -0.6146
vn -0.6720 -0.0179 -0.7403
vn -0.0000 -0.7115 -0.7026
vn 0.6720 -0.0179 -0.7403
vn -0.0000 0.6801 -0.7331
vn -0.0000 0.0242 0.9997
vn -0.0000 -0.0242 -0.9997
vn -0.0000 0.9998 -0.0181
vn -0.0000 -0.9998 0.0181
vn -0.7478 0.0161 0.6637
vn -0.0000 -0.7460 0.6659
vn 0.7478 0.0161 0.6637
vn -0.0000 0.7912 0.6116
vt 0.750000 0.500000
vt 0.750000 0.625000
vt 0.625000 0.625000
vt 0.625000 0.500000
vt 0.750000 0.750000
vt 0.750000 0.875000
vt 0.625000 0.875000
vt 0.625000 0.750000
vt 0.750000 0.125000
vt 0.750000 0.250000
vt 0.625000 0.250000
vt 0.625000 0.125000
vt 0.750000 0.375000
vt 0.625000 0.375000
vt 0.687500 1.000000
vt 0.687500 0.000000
vt 0.749121 0.283587
vt 0.750717 0.341413
vt 0.624283 0.341413
vt 0.625879 0.283587
vt 0.500000 0.250000
vt 0.500000 0.125000
vt 0.500000 0.500000
vt 0.500000 0.375000
vt 0.500000 0.750000
vt 0.500000 0.625000
vt 0.562500 1.000000
vt 0.500000 0.875000
vt 0.562500 0.000000
vt 0.500717 0.341413
vt 0.499121 0.283587
vt 0.437500 1.000000
vt 0.375000 0.875000
vt 0.437500 0.000000
vt 0.375000 0.125000
vt 0.375717 0.341413
vt 0.374121 0.283587
vt 0.375000 0.625000
vt 0.375000 0.500000
vt 0.375000 0.750000
vt 0.375000 0.250000
vt 0.375000 0.375000
vt 0.250717 0.341413
vt 0.249121 0.283587
vt 0.250000 0.625000
vt 0.250000 0.500000
vt 0.250000 0.875000
vt 0.250000 0.750000
vt 0.250000 0.250000
vt 0.250000 0.125000
vt 0.250000 0.375000
vt 0.312500 1.000000
vt 0.312500 0.000000
vt 0.125000 0.250000
vt 0.125000 0.125000
vt 0.125000 0.500000
vt 0.125000 0.375000
vt 0.125000 0.750000
vt 0.125000 0.625000
vt 0.187500 1.000000
vt 0.125000 0.875000
vt 0.187500 0.000000
vt 0.125717 0.341413
vt 0.124121 0.283587
vt 0.000000 0.500000
vt 0.000000 0.375000
vt 0.000000 0.750000
vt 0.000000 0.625000
vt 0.062500 1.000000
vt 0.000000 0.875000
vt 0.062500 0.000000
vt 0.000000 0.125000
vt -0.000717 0.341413
vt 0.000879 0.283587
vt 0.000000 0.250000
vt 0.937500 0.000000
vt 1.000000 0.125000
vt 0.875000 0.125000
vt 0.999121 0.283587
vt 1.000717 0.341413
vt 0.875717 0.341413
vt 0.874121 0.283587
vt 1.000000 0.500000
vt 1.000000 0.625000
vt 0.875000 0.625000
vt 0.875000 0.500000
vt 1.000000 0.750000
vt 1.000000 0.875000
vt 0.875000 0.875000
vt 0.875000 0.750000
vt 1.000000 0.250000
vt 0.875000 0.250000
vt 1.000000 0.375000
vt 0.875000 0.375000
vt 0.937500 1.000000
vt 0.812500 1.000000
vt 0.812500 0.000000
vt 0.375000 0.000000
vt 0.625000 0.000000
vt 0.625000 1.000000
vt 0.375000 1.000000
vt 0.613120 0.000000
vt 0.613120 0.250000
vt 0.613120 0.500000
vt 0.613120 0.750000
vt 0.613120 1.000000
vt 0.391595 0.750000
vt 0.391595 1.000000
vt 0.391595 0.500000
vt 0.391595 0.250000
vt 0.391595 0.000000
s 0
f 55/1/1 54/2/1 3/3/1 4/4/1
f 53/5/2 52/6/2 1/7/2 2/8/2
f 58/9/3 57/10/3 6/11/3 7/12/3
f 90/13/4 55/1/4 4/4/4 78/14/4
f 54/2/5 53/5/5 2/8/5 3/3/5
f 52/6/6 51/15/6 1/7/6
f 50/16/7 58/9/7 7/12/7
f 89/17/8 56/18/8 5/19/8 75/20/8
f 7/12/9 6/11/9 13/21/9 14/22/9
f 78/14/10 4/4/10 11/23/10 77/24/10
f 3/3/11 2/8/11 9/25/11 10/26/11
f 1/7/12 51/27/12 8/28/12
f 50/29/13 7/12/13 14/22/13
f 75/20/14 5/19/14 12/30/14 76/31/14
f 4/4/15 3/3/15 10/26/15 11/23/15
f 2/8/16 1/7/16 8/28/16 9/25/16
f 8/28/17 51/32/17 15/33/17
f 50/34/18 14/22/18 21/35/18
f 76/31/19 12/30/19 19/36/19 79/37/19
f 11/23/20 10/26/20 17/38/20 18/39/20
f 9/25/21 8/28/21 15/33/21 16/40/21
f 14/22/22 13/21/22 20/41/22 21/35/22
f 77/24/23 11/23/23 18/39/23 80/42/23
f 10/26/24 9/25/24 16/40/24 17/38/24
f 79/37/25 19/36/25 26/43/25 81/44/25
f 18/39/26 17/38/26 24/45/26 25/46/26
f 16/40/27 15/33/27 22/47/27 23/48/27
f 21/35/28 20/41/28 27/49/28 28/50/28
f 80/42/29 18/39/29 25/46/29 82/51/29
f 17/38/30 16/40/30 23/48/30 24/45/30
f 15/33/31 51/52/31 22/47/31
f 50/53/32 21/35/32 28/50/32
f 28/50/33 27/49/33 34/54/33 35/55/33
f 82/51/34 25/46/34 32/56/34 84/57/34
f 24/45/35 23/48/35 30/58/35 31/59/35
f 22/47/36 51/60/36 29/61/36
f 50/62/37 28/50/37 35/55/37
f 81/44/38 26/43/38 33/63/38 83/64/38
f 25/46/39 24/45/39 31/59/39 32/56/39
f 23/48/40 22/47/40 29/61/40 30/58/40
f 84/57/41 32/56/41 39/65/41 85/66/41
f 31/59/42 30/58/42 37/67/42 38/68/42
f 29/61/43 51/69/43 36/70/43
f 50/71/44 35/55/44 42/72/44
f 83/64/45 33/63/45 40/73/45 86/74/45
f 32/56/46 31/59/46 38/68/46 39/65/46
f 30/58/47 29/61/47 36/70/47 37/67/47
f 35/55/48 34/54/48 41/75/48 42/72/48
f 50/76/49 42/77/49 49/78/49
f 86/79/50 40/80/50 47/81/50 87/82/50
f 39/83/51 38/84/51 45/85/51 46/86/51
f 37/87/52 36/88/52 43/89/52 44/90/52
f 42/77/53 41/91/53 48/92/53 49/78/53
f 85/93/54 39/83/54 46/86/54 88/94/54
f 38/84/55 37/87/55 44/90/55 45/85/55
f 36/88/56 51/95/56 43/89/56
f 46/86/57 45/85/57 54/2/57 55/1/57
f 44/90/58 43/89/58 52/6/58 53/5/58
f 49/78/59 48/92/59 57/10/59 58/9/59
f 88/94/60 46/86/60 55/1/60 90/13/60
f 45/85/61 44/90/61 53/5/61 54/2/61
f 43/89/62 51/96/62 52/6/62
f 50/97/63 49/78/63 58/9/63
f 87/82/64 47/81/64 56/18/64 89/17/64
f 59/98/65 60/99/65 62/11/65 61/41/65
f 61/41/66 62/11/66 66/4/66 65/39/66
f 65/39/67 66/4/67 64/8/67 63/40/67
f 63/40/68 64/8/68 60/100/68 59/101/68
f 61/56/69 65/39/69 63/40/69 59/58/69
f 66/4/70 62/86/70 60/90/70 64/8/70
f 67/98/65 68/99/65 70/11/65 69/41/65
f 69/41/66 70/11/66 74/4/66 73/39/66
f 73/39/67 74/4/67 72/8/67 71/40/67
f 71/40/68 72/8/68 68/100/68 67/101/68
f 69/56/69 73/39/69 71/40/69 67/58/69
f 74/4/70 70/86/70 68/90/70 72/8/70
f 75/20/71 76/31/71 13/21/71 6/11/71
f 12/30/71 5/19/71 78/14/71 77/24/71
f 76/31/72 79/37/72 20/41/72 13/21/72
f 19/36/72 12/30/72 77/24/72 80/42/72
f 79/37/73 81/44/73 27/49/73 20/41/73
f 26/43/73 19/36/73 80/42/73 82/51/73
f 81/44/74 83/64/74 34/54/74 27/49/74
f 33/63/74 26/43/74 82/51/74 84/57/74
f 40/73/75 33/63/75 84/57/75 85/66/75
f 83/64/75 86/74/75 41/75/75 34/54/75
f 86/79/76 87/82/76 48/92/76 41/91/76
f 47/81/76 40/80/76 85/93/76 88/94/76
f 87/82/77 89/17/77 57/10/77 48/92/77
f 56/18/77 47/81/77 88/94/77 90/13/77
f 89/17/78 75/20/78 6/11/78 57/10/78
f 5/19/78 56/18/78 90/13/78 78/14/78
f 99/102/79 92/99/79 94/11/79 100/103/79
f 100/103/80 94/11/80 98/4/80 101/104/80
f 101/104/81 98/4/81 96/8/81 102/105/81
f 102/105/82 96/8/82 92/100/82 99/106/82
f 93/56/83 97/39/83 95/40/83 91/58/83
f 98/4/84 94/86/84 92/90/84 96/8/84
f 105/107/85 102/105/85 99/106/85 106/108/85
f 104/109/67 101/104/67 102/105/67 105/107/67
f 103/110/86 100/103/86 101/104/86 104/109/86
f 106/111/65 99/102/65 100/103/65 103/110/65
f 91/98/87 106/111/87 103/110/87 93/41/87
f 93/41/88 103/110/88 104/109/88 97/39/88
f 97/39/89 104/109/89 105/107/89 95/40/89
f 95/40/90 105/107/90 106/108/90 91/101/90
